<svg width="50" height="62" viewBox="0 0 50 62" fill="none" xmlns="http://www.w3.org/2000/svg">
<g id="Frame 33072">
<g id="Vector" filter="url(#filter0_i_598_748)">
<path d="M40.2055 24.1966C40.9607 24.5437 41.6651 24.8399 42.3454 25.1832C44.5387 26.2907 46.3137 27.8699 47.594 29.9767C48.3213 31.1719 48.8223 32.4675 49.0473 33.8496C49.2393 35.0206 49.3627 36.2031 49.2126 37.3945C49.06 38.6024 48.8986 39.8078 48.4167 40.9432C47.5305 43.0297 46.142 44.7055 44.3022 46.0227C42.1432 47.5676 39.7134 48.4716 37.1438 49.0183C35.9041 49.2815 34.6415 49.4341 33.3878 49.635C33.1907 49.6668 32.9937 49.6871 32.7444 49.7189C32.7444 49.5295 32.7444 49.3896 32.7444 49.2485C32.7457 45.9147 32.747 42.5808 32.7495 39.247C32.7508 37.3729 31.6472 35.9819 29.8239 35.5699C28.5269 35.2762 27.0342 35.8764 26.2307 36.9813C25.745 37.6488 25.5339 38.3964 25.5313 39.2025C25.5224 42.6088 25.5288 46.0138 25.5288 49.4201C25.5288 49.5511 25.5288 49.6833 25.5288 49.8817C25.0825 49.8817 24.6553 49.8893 24.2281 49.8791C23.8835 49.8715 23.4309 49.9656 23.2287 49.7863C23.0558 49.6337 23.1575 49.1557 23.1575 48.8213C23.1575 43.5014 23.1321 38.1828 23.174 32.8629C23.188 31.0295 21.8962 29.2659 19.7474 29.1184C18.804 29.0536 17.9457 29.3677 17.2235 29.9958C16.3653 30.7421 15.9775 31.6932 15.9787 32.8273C15.9851 38.3634 15.9787 43.8994 15.9889 49.4354C15.9889 49.7723 15.9164 49.902 15.5566 49.8868C14.9221 49.8588 14.2864 49.8791 13.6074 49.8791C13.6074 49.7037 13.6074 49.5625 13.6074 49.4227C13.6087 42.31 13.61 35.1974 13.6125 28.0847C13.6125 26.3237 12.6157 24.9823 10.9284 24.4788C8.91441 23.8787 6.70839 25.3155 6.45156 27.3981C6.41214 27.7185 6.38798 28.044 6.38798 28.3657C6.38417 35.3817 6.38544 42.3978 6.38671 49.415C6.38671 49.546 6.38671 49.6782 6.38671 49.8448C6.26719 49.855 6.1642 49.8728 6.06248 49.8728C4.45025 49.8753 2.83675 49.869 1.22451 49.8829C0.920628 49.8855 0.841797 49.7901 0.841797 49.4939C0.848154 33.369 0.845611 17.2416 0.843068 1.11542C0.843068 1.00862 0.843068 0.903085 0.843068 0.742879H1.25503C9.95575 0.742879 18.6577 0.731435 27.3585 0.749236C30.5384 0.755593 33.693 1.0315 36.7738 1.88848C39.4744 2.63865 41.8953 3.88597 43.8546 5.93305C45.2151 7.35456 46.2297 8.98205 46.6379 10.9261C46.9825 12.5714 47.0524 14.2205 46.7053 15.8963C45.9971 19.3141 44.0415 21.8011 41.1476 23.632C40.8552 23.8177 40.5539 23.9893 40.2067 24.1978L40.2055 24.1966ZM10.0041 15.581C8.14771 15.5149 6.39307 17.0865 6.39688 19.1653C6.4007 21.1692 7.95317 22.7547 9.97355 22.7585C11.9914 22.7623 13.624 21.1501 13.6112 19.1564C13.5985 17.1894 11.9901 15.5276 10.0028 15.581H10.0041Z" fill="white"/>
</g>
<path id="Vector_2" d="M40.6893 59.4215H39.5577C39.5577 59.0769 39.5577 58.7438 39.5577 58.4119C39.5577 57.8219 39.5628 57.2332 39.5539 56.6433C39.5412 55.8575 39.1674 55.4214 38.5024 55.3985C37.7649 55.3731 37.1902 55.8639 37.1597 56.609C37.1241 57.4621 37.1432 58.3165 37.1381 59.171C37.1381 59.2409 37.1292 59.3121 37.1228 59.4075H35.995C35.995 59.2791 35.9976 59.1532 35.995 59.026C35.9785 58.1614 35.9823 57.2943 35.9366 56.4309C35.9048 55.8372 35.5666 55.4862 35.0516 55.4061C34.4527 55.3133 33.8984 55.5841 33.6899 56.1156C33.5996 56.3445 33.5538 56.6039 33.55 56.8505C33.5335 57.6923 33.5436 58.534 33.5436 59.4049H32.4082V54.4792H33.4559C33.4673 54.6445 33.4775 54.8073 33.4915 55.0221C33.995 54.5695 34.5595 54.3559 35.2105 54.3826C35.8577 54.4106 36.4006 54.6407 36.8101 55.1874C37.3136 54.6674 37.9048 54.3902 38.613 54.3839C39.8781 54.3724 40.6296 54.9904 40.7186 56.2555C40.7911 57.2727 40.7351 58.2987 40.7351 59.321C40.7351 59.3528 40.7071 59.3846 40.6893 59.4215Z" fill="white"/>
<path id="Vector_3" d="M6.66519 59.4126H5.53485V57.7914C5.40388 57.7787 5.30089 57.7596 5.19918 57.7596C4.28498 57.7571 3.37206 57.7711 2.45787 57.7507C2.15526 57.7444 2.09423 57.8614 2.1044 58.1284C2.1222 58.5467 2.10948 58.965 2.10948 59.4087H0.907938C0.907938 59.0667 0.907938 58.7349 0.907938 58.4017C0.907938 57.5003 0.890138 56.5988 0.90921 55.6973C0.934639 54.5581 1.29955 53.5663 2.41591 53.0831C3.58058 52.5784 4.74653 52.6407 5.78914 53.4328C6.29646 53.8181 6.62069 54.394 6.64612 55.0082C6.70588 56.4665 6.66519 57.93 6.66519 59.4126ZM2.06371 56.7514C3.21948 56.7514 4.28498 56.7552 5.34921 56.7399C5.40897 56.7399 5.50942 56.5848 5.51704 56.4945C5.53993 56.244 5.52595 55.991 5.52467 55.738C5.51705 54.38 4.83553 53.7532 3.48268 53.8791C2.86601 53.9363 2.3765 54.2529 2.24172 54.8594C2.10821 55.4557 2.11966 56.0851 2.06371 56.7488V56.7514Z" fill="white"/>
<path id="Vector_4" d="M24.998 59.4163H23.9109C23.8982 59.2459 23.8867 59.0819 23.8702 58.8467C23.2955 59.3883 22.6343 59.5727 21.907 59.4862C21.1683 59.3985 20.5504 59.0666 20.1333 58.4373C19.4455 57.3997 19.6031 55.8307 20.4588 55.0437C21.3997 54.1778 22.6992 54.1651 23.8333 55.0488V52.5312H24.9993V59.4163H24.998ZM20.8937 56.9458C20.8937 57.8816 21.4785 58.5021 22.3622 58.5059C23.2612 58.5097 23.8727 57.8753 23.8702 56.9382C23.8677 56.0126 23.265 55.3768 22.394 55.3794C21.4773 55.3819 20.8924 55.9922 20.8937 56.9445V56.9458Z" fill="white"/>
<path id="Vector_5" d="M42.209 54.4624H43.366C43.366 54.8159 43.366 55.1604 43.366 55.5037C43.366 55.9602 43.3622 56.4179 43.366 56.8744C43.3724 57.7148 43.7818 58.1853 44.5129 58.2018C45.2923 58.2183 45.867 57.692 45.8925 56.8935C45.9166 56.1611 45.9014 55.4262 45.9039 54.6925C45.9039 54.6341 45.9115 54.5743 45.9192 54.4827H47.0203C47.033 54.5171 47.0546 54.5501 47.0546 54.5819C47.0533 56.109 47.0737 57.6373 47.0381 59.1643C47.0114 60.3125 46.326 61.0487 45.1741 61.2508C44.2472 61.4136 43.3584 61.2877 42.5154 60.8567C42.2433 60.7181 42.1187 60.5642 42.3488 60.2769C42.4747 60.1205 42.5637 59.9348 42.6769 59.7492C43.2592 60.1764 43.8937 60.3468 44.5917 60.3176C45.5148 60.2781 46.0183 59.6424 45.8645 58.6545C45.4004 59.0232 44.888 59.2215 44.3031 59.2165C42.9948 59.2037 42.2192 58.432 42.2128 57.1185C42.2077 56.2437 42.2128 55.369 42.2128 54.4624H42.209Z" fill="white"/>
<path id="Vector_6" d="M17.4138 54.9613C17.4265 54.7808 17.4367 54.6396 17.4481 54.4743H18.5721V59.4102H17.485C17.4723 59.25 17.4583 59.0784 17.4405 58.8495C16.8365 59.4217 16.1487 59.587 15.3871 59.4712C14.8123 59.3835 14.2961 59.1635 13.9147 58.7122C13.0768 57.723 13.0602 56.1908 13.8638 55.2182C14.661 54.2531 16.0024 54.1463 17.4138 54.96V54.9613ZM14.469 56.9499C14.4741 57.8895 15.0552 58.5062 15.9363 58.5062C16.8353 58.5062 17.4418 57.8743 17.4405 56.9372C17.4405 55.9988 16.834 55.3809 15.9236 55.3873C15.031 55.3936 14.464 56.0027 14.469 56.9512V56.9499Z" fill="white"/>
<path id="Vector_7" d="M27.4368 57.6262C27.8208 58.6294 29.1317 58.7998 30.3065 58.0039C30.496 58.2238 30.6879 58.4476 30.8952 58.6866C30.4947 59.1812 29.9657 59.3694 29.3859 59.4724C27.9441 59.7267 26.5912 58.9486 26.2327 57.6529C25.8868 56.4069 26.4844 55.0706 27.5944 54.6039C28.8634 54.0699 30.3052 54.5035 30.9346 55.6186C31.1495 55.9987 31.2627 56.412 31.2156 56.8837C29.9505 57.1316 28.6955 57.3783 27.4355 57.6262H27.4368ZM30.0891 56.3471C29.8424 55.5461 29.1037 55.1557 28.3205 55.3554C27.6478 55.5257 27.1837 56.2111 27.3249 56.8748C28.2365 56.7006 29.1507 56.5264 30.0891 56.3471Z" fill="white"/>
<path id="Vector_8" d="M12.7221 58.3229C12.3229 59.2397 11.2129 59.6745 9.94902 59.4329C8.78308 59.2104 7.94772 58.2314 7.91339 57.0489C7.87651 55.7978 8.64194 54.7564 9.8028 54.4754C11.0819 54.1652 12.2517 54.5835 12.7374 55.5486C12.4538 55.7138 12.169 55.8804 11.8893 56.0419C11.0488 55.2548 10.1639 55.1735 9.52435 55.8079C8.95473 56.375 8.93311 57.4558 9.48112 58.0457C10.0991 58.712 10.9382 58.6471 11.9058 57.8461C12.1652 57.9974 12.4335 58.1538 12.7221 58.3229Z" fill="white"/>
</g>
<defs>
<filter id="filter0_i_598_748" x="0.0789102" y="0.739258" width="49.2004" height="50.4292" filterUnits="userSpaceOnUse" color-interpolation-filters="sRGB">
<feFlood flood-opacity="0" result="BackgroundImageFix"/>
<feBlend mode="normal" in="SourceGraphic" in2="BackgroundImageFix" result="shape"/>
<feColorMatrix in="SourceAlpha" type="matrix" values="0 0 0 0 0 0 0 0 0 0 0 0 0 0 0 0 0 0 127 0" result="hardAlpha"/>
<feOffset dx="-0.762887" dy="1.27148"/>
<feGaussianBlur stdDeviation="0.635739"/>
<feComposite in2="hardAlpha" operator="arithmetic" k2="-1" k3="1"/>
<feColorMatrix type="matrix" values="0 0 0 0 0 0 0 0 0 0 0 0 0 0 0 0 0 0 0.25 0"/>
<feBlend mode="normal" in2="shape" result="effect1_innerShadow_598_748"/>
</filter>
</defs>
</svg>
