<svg width="240" height="33" viewBox="0 0 240 33" fill="none" xmlns="http://www.w3.org/2000/svg">
<path fill-rule="evenodd" clip-rule="evenodd" d="M4 0.5C1.79086 0.5 0 2.29086 0 4.5V28.5C0 30.7091 1.79086 32.5 4 32.5H26.1176C28.3268 32.5 30.1176 30.7091 30.1176 28.5V4.5C30.1176 2.29086 28.3268 0.5 26.1177 0.5H4ZM6.27448 27.4804V5.51962L20.3315 18.9754L20.3195 5.51962L23.8431 8.87473V27.4804L9.93863 13.9465V23.8005L16.8672 23.8684L20.6153 27.4804H6.27448Z" fill="white"/>
<path d="M56.2938 7.54545V25H52.7142L45.7682 14.9261H45.6574V25H41.4387V7.54545H45.0694L51.9387 17.6023H52.0836V7.54545H56.2938ZM62.722 25H58.188L64.0772 7.54545H69.6936L75.5828 25H71.0488L66.9493 11.9432H66.813L62.722 25ZM62.1169 18.1307H71.5942V21.3352H62.1169V18.1307ZM92.3172 7.54545V25H88.7377L81.7917 14.9261H81.6809V25H77.4621V7.54545H81.0928L87.9621 17.6023H88.107V7.54545H92.3172ZM101.422 25H94.9699V7.54545H101.413C103.192 7.54545 104.723 7.89489 106.007 8.59375C107.297 9.28693 108.291 10.2869 108.99 11.5938C109.689 12.8949 110.038 14.4517 110.038 16.2642C110.038 18.0824 109.689 19.6449 108.99 20.9517C108.297 22.2585 107.305 23.2614 106.015 23.9602C104.726 24.6534 103.194 25 101.422 25ZM99.1887 21.4034H101.26C102.237 21.4034 103.064 21.2386 103.74 20.9091C104.422 20.5739 104.936 20.0312 105.282 19.2812C105.635 18.5256 105.811 17.5199 105.811 16.2642C105.811 15.0085 105.635 14.0085 105.282 13.2642C104.93 12.5142 104.41 11.9744 103.723 11.6449C103.041 11.3097 102.2 11.142 101.2 11.142H99.1887V21.4034ZM110.483 7.54545H115.196L118.887 14.8494H119.04L122.731 7.54545H127.444L121.06 19.1705V25H116.867V19.1705L110.483 7.54545ZM138.647 12.7784C138.59 12.1534 138.337 11.6676 137.888 11.321C137.445 10.9688 136.812 10.7926 135.988 10.7926C135.442 10.7926 134.988 10.8636 134.624 11.0057C134.26 11.1477 133.988 11.3438 133.806 11.5938C133.624 11.8381 133.53 12.1193 133.525 12.4375C133.513 12.6989 133.564 12.929 133.678 13.1278C133.797 13.3267 133.968 13.5028 134.189 13.6562C134.417 13.804 134.689 13.9347 135.008 14.0483C135.326 14.1619 135.684 14.2614 136.081 14.3466L137.581 14.6875C138.445 14.875 139.206 15.125 139.866 15.4375C140.53 15.75 141.087 16.1222 141.536 16.554C141.991 16.9858 142.334 17.483 142.567 18.0455C142.8 18.608 142.919 19.2386 142.925 19.9375C142.919 21.0398 142.641 21.9858 142.09 22.7756C141.539 23.5653 140.746 24.1705 139.712 24.5909C138.684 25.0114 137.442 25.2216 135.988 25.2216C134.527 25.2216 133.255 25.0028 132.169 24.5653C131.084 24.1278 130.241 23.4631 129.638 22.571C129.036 21.679 128.726 20.5511 128.709 19.1875H132.749C132.783 19.75 132.934 20.2188 133.201 20.5938C133.468 20.9688 133.834 21.2528 134.3 21.446C134.772 21.6392 135.317 21.7358 135.937 21.7358C136.505 21.7358 136.988 21.6591 137.385 21.5057C137.789 21.3523 138.098 21.1392 138.314 20.8665C138.53 20.5937 138.641 20.2812 138.647 19.929C138.641 19.5994 138.539 19.3182 138.34 19.0852C138.141 18.8466 137.834 18.642 137.419 18.4716C137.01 18.2955 136.488 18.1335 135.851 17.9858L134.027 17.5597C132.516 17.2131 131.326 16.6534 130.456 15.8807C129.587 15.1023 129.155 14.0511 129.161 12.7273C129.155 11.6477 129.445 10.7017 130.03 9.8892C130.616 9.0767 131.425 8.44318 132.459 7.98864C133.493 7.53409 134.672 7.30682 135.996 7.30682C137.348 7.30682 138.522 7.53693 139.516 7.99716C140.516 8.4517 141.292 9.09091 141.843 9.91477C142.394 10.7386 142.675 11.6932 142.687 12.7784H138.647ZM145.056 25V7.54545H149.275V14.5511H156.152V7.54545H160.363V25H156.152V17.9858H149.275V25H145.056ZM167.194 25L162.114 7.54545H166.776L169.41 18.983H169.554L172.563 7.54545H176.364L179.373 19.0085H179.518L182.16 7.54545H186.813L181.742 25H177.677L174.532 14.4148H174.395L171.25 25H167.194ZM190.433 25H185.899L191.788 7.54545H197.405L203.294 25H198.76L194.66 11.9432H194.524L190.433 25ZM189.828 18.1307H199.305V21.3352H189.828V18.1307ZM205.173 25V7.54545H212.383C213.69 7.54545 214.818 7.78125 215.767 8.25284C216.721 8.71875 217.457 9.3892 217.974 10.2642C218.491 11.1335 218.75 12.1648 218.75 13.358C218.75 14.5682 218.486 15.5966 217.957 16.4432C217.429 17.2841 216.679 17.9261 215.707 18.3693C214.736 18.8068 213.585 19.0256 212.255 19.0256H207.696V15.7017H211.471C212.108 15.7017 212.639 15.6193 213.065 15.4545C213.497 15.2841 213.824 15.0284 214.045 14.6875C214.267 14.3409 214.378 13.8977 214.378 13.358C214.378 12.8182 214.267 12.3722 214.045 12.0199C213.824 11.6619 213.497 11.3949 213.065 11.2188C212.633 11.0369 212.102 10.946 211.471 10.946H209.392V25H205.173ZM215 17.0227L219.346 25H214.744L210.483 17.0227H215ZM224.839 25H220.305L226.194 7.54545H231.811L237.7 25H233.166L229.067 11.9432H228.93L224.839 25ZM224.234 18.1307H233.711V21.3352H224.234V18.1307Z" fill="white"/>
</svg>
